<svg width="32" height="32" viewBox="0 0 26 30" fill="none" xmlns="http://www.w3.org/2000/svg">
<path d="M16.3273 15C16.3273 14.2636 16.9243 13.6667 17.6606 13.6667H17.6726C18.409 13.6667 19.0059 14.2636 19.0059 15C19.0059 15.7364 18.409 16.3333 17.6726 16.3333H17.6606C16.9243 16.3333 16.3273 15.7364 16.3273 15Z" fill="#666666"/>
<path d="M8.326 13.6667C7.58962 13.6667 6.99267 14.2636 6.99267 15C6.99267 15.7364 7.58962 16.3333 8.326 16.3333H8.33797C9.07435 16.3333 9.67131 15.7364 9.67131 15C9.67131 14.2636 9.07435 13.6667 8.33797 13.6667H8.326Z" fill="#666666"/>
<path fill-rule="evenodd" clip-rule="evenodd" d="M5.99999 8.74929V7.93334C5.99999 4.47734 8.74807 1.0455 12.3186 0.711176C16.487 0.307831 20 3.59174 20 7.68001V8.74927C22.0734 8.96984 23.5576 9.6335 24.502 10.7563C25.6731 12.1485 25.7827 13.9783 25.594 15.6833L25.5924 15.6974L24.5934 23.6889C24.446 25.0572 24.1008 26.5559 22.8796 27.6716C21.6647 28.7815 19.7826 29.3333 17.0001 29.3333H9.00008C6.21762 29.3333 4.33546 28.7815 3.1206 27.6716C1.89934 26.5559 1.55414 25.0571 1.40673 23.6888L0.407805 15.6974L0.40615 15.6833C0.217478 13.9783 0.327105 12.1485 1.49813 10.7563C2.44252 9.63354 3.92666 8.96988 5.99999 8.74929ZM12.5099 2.70201C15.4874 2.41315 18 4.75554 18 7.68001V8.66667H7.99999V7.93334C7.99999 5.38994 10.0776 2.92902 12.5063 2.70235L12.5099 2.70201ZM3.39236 23.4493L2.39326 15.4565C2.22321 13.9117 2.40066 12.7904 3.0287 12.0437C3.64815 11.3072 4.93747 10.6667 7.66675 10.6667H18.3334C21.0627 10.6667 22.352 11.3072 22.9715 12.0437C23.5995 12.7903 23.7769 13.9116 23.6069 15.4563L22.6078 23.4493L22.6058 23.4668C22.4726 24.7094 22.1967 25.5865 21.5306 26.195C20.8555 26.8118 19.5776 27.3333 17.0001 27.3333H9.00008C6.42255 27.3333 5.14471 26.8118 4.46957 26.195C3.80348 25.5865 3.52752 24.7094 3.39439 23.4668L3.39236 23.4493Z" fill="#666666"/>
</svg>
