<svg width="20" height="14" viewBox="0 0 20 14" fill="none" xmlns="http://www.w3.org/2000/svg">
<path d="M12.9603 0.399602C12.6674 0.106708 12.1926 0.106708 11.8997 0.399602C11.6068 0.692495 11.6068 1.16737 11.8997 1.46026L16.6894 6.25H1.5C1.08579 6.25 0.75 6.58579 0.75 7C0.75 7.41421 1.08579 7.75 1.5 7.75H16.6893L11.8997 12.5396C11.6068 12.8325 11.6068 13.3074 11.8997 13.6003C12.1926 13.8932 12.6674 13.8932 12.9603 13.6003L19.0303 7.53026C19.171 7.38961 19.25 7.19884 19.25 6.99993C19.25 6.80102 19.171 6.61025 19.0303 6.4696L12.9603 0.399602Z" fill="#333333"/>
</svg>
