<svg width="32" height="32" viewBox="0 0 21 30" fill="none" xmlns="http://www.w3.org/2000/svg">
<path fill-rule="evenodd" clip-rule="evenodd" d="M10 0.666672C6.16629 0.666672 3.08004 3.76919 3.08004 7.58667C3.08004 11.3245 6.02617 14.3679 9.73978 14.4928C9.78119 14.4942 9.82264 14.493 9.86391 14.4892C9.95349 14.4811 10.0496 14.4819 10.1139 14.4884C10.1581 14.4928 10.2026 14.4943 10.247 14.4928C13.9613 14.3679 16.9045 11.3247 16.92 7.59084L16.92 7.58667C16.92 3.76772 13.819 0.666672 10 0.666672ZM5.08004 7.58667C5.08004 4.87082 7.27379 2.66667 10 2.66667C12.7137 2.66667 14.9189 4.87119 14.92 7.58463C14.9079 10.2308 12.8412 12.3746 10.236 12.4917C10.0784 12.4803 9.91136 12.4808 9.75322 12.4918C7.14547 12.376 5.08004 10.2307 5.08004 7.58667Z" fill="#666666"/>
<path fill-rule="evenodd" clip-rule="evenodd" d="M17.4487 17.5818C15.4226 16.2286 12.8009 15.5833 10.2299 15.5833C7.65867 15.5833 5.03189 16.2287 2.99398 17.5799L2.9903 17.5823C1.16984 18.801 0.126587 20.5033 0.126587 22.3317C0.126587 24.1604 1.1702 25.8597 2.99168 27.0719C5.0238 28.4312 7.64831 29.08 10.2199 29.08C12.792 29.08 15.4171 28.4309 17.4493 27.0711C19.2698 25.8525 20.3133 24.1501 20.3133 22.3217C20.3133 20.4931 19.2698 18.7939 17.4487 17.5818ZM2.12659 22.3317C2.12659 21.3239 2.69617 20.1867 4.10103 19.2456C5.74294 18.1576 7.96202 17.5833 10.2299 17.5833C12.499 17.5833 14.7106 18.1581 16.3379 19.2449L16.3393 19.2459C17.7439 20.1804 18.3133 21.3141 18.3133 22.3217C18.3133 23.3299 17.7432 24.4677 16.337 25.409C14.7026 26.5025 12.4877 27.08 10.2199 27.08C7.95203 27.08 5.73706 26.5024 4.10268 25.4089L4.10049 25.4074C2.69593 24.473 2.12659 23.3393 2.12659 22.3317Z" fill="#666666"/>
</svg>
