<svg width="20" height="14" viewBox="0 0 20 14" fill="none" xmlns="http://www.w3.org/2000/svg">
<path d="M8.10033 1.46026C8.39322 1.16737 8.39322 0.692495 8.10033 0.399602C7.80744 0.106708 7.33256 0.106708 7.03967 0.399602L0.96967 6.4696C0.829018 6.61025 0.75 6.80102 0.75 6.99993C0.75 7.19884 0.829018 7.38961 0.96967 7.53026L7.03967 13.6003C7.33256 13.8932 7.80744 13.8932 8.10033 13.6003C8.39322 13.3074 8.39322 12.8325 8.10033 12.5396L3.31073 7.75H18.5C18.9142 7.75 19.25 7.41421 19.25 7C19.25 6.58579 18.9142 6.25 18.5 6.25H3.31059L8.10033 1.46026Z" fill="#999999"/>
</svg>
